<svg width="489" height="49" viewBox="0 0 489 49" fill="none" xmlns="http://www.w3.org/2000/svg">
<g clip-path="url(#clip0_22_777)">
<path fill-rule="evenodd" clip-rule="evenodd" d="M10 4.39905C15.5228 4.39905 20 8.8762 20 14.399V4.39905H30C35.5228 4.39905 40 8.8762 40 14.399C40 19.9218 35.5228 24.399 30 24.399C35.5228 24.399 40 28.8762 40 34.399C40 37.1413 38.8961 39.6258 37.1085 41.4324L37.0711 41.4701L37.0379 41.5031C35.2309 43.2933 32.7446 44.399 30 44.399C27.2741 44.399 24.8029 43.3083 22.999 41.5395C22.9756 41.5165 22.9522 41.4933 22.9289 41.4701C22.907 41.4482 22.8852 41.4262 22.8635 41.4041C21.0924 39.5999 20 37.127 20 34.399C20 39.9218 15.5228 44.399 10 44.399C4.47715 44.399 0 39.9218 0 34.399V24.399H10C4.47715 24.399 0 19.9218 0 14.399C0 8.8762 4.47715 4.39905 10 4.39905ZM18 14.399C18 18.8173 14.4183 22.399 10 22.399V6.39905C14.4183 6.39905 18 9.98077 18 14.399ZM38 34.399C38 29.9807 34.4183 26.399 30 26.399C25.5817 26.399 22 29.9807 22 34.399H38ZM2 26.399V34.399C2 38.8173 5.58172 42.399 10 42.399C14.4183 42.399 18 38.8173 18 34.399V26.399H2ZM22 22.399V6.39905H30C34.4183 6.39905 38 9.98077 38 14.399C38 18.8173 34.4183 22.399 30 22.399H22Z" fill="#263238"/>
</g>
<rect x="81" y="0.399048" width="48" height="48" rx="8" fill="#F5F7FA"/>
<g clip-path="url(#clip1_22_777)">
<path fill-rule="evenodd" clip-rule="evenodd" d="M91.0981 14.3605L81.1123 24.2458C83.1096 26.2231 85.3913 27.8895 87.8789 29.1932C88.5665 30.9988 89.6443 32.6921 91.1123 34.1453C96.6352 39.6126 105.59 39.6126 111.112 34.1453C112.58 32.6921 113.658 30.9988 114.346 29.1931C116.833 27.8895 119.115 26.2231 121.112 24.2458L111.135 14.3685C111.127 14.3611 111.12 14.3537 111.112 14.3463C105.59 8.87902 96.6352 8.87902 91.1123 14.3463C91.1076 14.3511 91.1028 14.3558 91.0981 14.3605ZM110.157 30.9767C107.247 31.9489 104.192 32.4468 101.112 32.4468C98.0326 32.4468 94.9779 31.9489 92.0679 30.9767C92.3832 31.3908 92.7313 31.7882 93.1123 32.1654C97.5306 36.5393 104.694 36.5393 109.112 32.1654C109.493 31.7882 109.842 31.3908 110.157 30.9767ZM93.3174 16.1282C94.0677 16.619 94.8655 17.0389 95.7003 17.3812C97.4161 18.0848 99.2551 18.4469 101.112 18.4469C102.97 18.4469 104.809 18.0848 106.524 17.3812C107.359 17.0389 108.157 16.6189 108.907 16.1282C104.544 12.0184 97.6805 12.0184 93.3174 16.1282Z" fill="#3B4158"/>
</g>
<rect x="170" y="0.399048" width="48" height="48" rx="8" fill="#F5F7FA"/>
<g clip-path="url(#clip2_22_777)">
<path d="M224.996 19.9155C225.001 19.8738 225.001 19.8316 224.996 19.7899C225.001 19.756 225.001 19.7213 224.996 19.6873L224.588 16.7546C224.53 16.4038 224.372 16.0758 224.134 15.8075L224.064 15.7276L223.937 15.6021L216.883 9.64552L217.081 9.83953C216.919 9.64964 216.716 9.49776 216.486 9.39507C216.256 9.29238 216.006 9.24149 215.754 9.24615H213.612C213.264 9.23938 212.924 9.34794 212.646 9.55425C212.355 9.34918 212.004 9.24118 211.645 9.24615H209.503C209.222 9.24168 208.945 9.31002 208.7 9.44428C208.455 9.57853 208.25 9.77393 208.107 10.0107C207.885 10.3488 207.802 10.7563 207.874 11.1518L208.142 13.0004C207.964 12.9018 207.763 12.8507 207.56 12.8521H197.189C196.817 12.8543 196.453 12.9613 196.141 13.1601C195.839 13.3453 195.597 13.6103 195.443 13.9247L194.64 13.2514C194.324 12.9647 193.906 12.8093 193.476 12.8178H177.204C176.83 12.8245 176.465 12.9268 176.144 13.1145C175.706 13.3662 175.384 13.7755 175.248 14.2556L170.08 31.201C169.984 31.4803 169.974 31.7814 170.053 32.0659C170.132 32.3504 170.295 32.6056 170.522 32.7986C170.582 32.8478 170.644 32.8936 170.709 32.9355C170.709 32.9355 170.604 32.867 170.546 32.81L177.599 38.778C177.898 39.0473 178.288 39.1978 178.693 39.2002H195.094C195.468 39.1906 195.833 39.0844 196.153 38.8921C196.333 38.7953 196.495 38.6678 196.63 38.5155L196.688 38.4356L196.781 38.3216L196.851 38.196L197.619 38.8465C197.913 39.1051 198.295 39.2473 198.69 39.2458H215.125C215.499 39.2336 215.864 39.1276 216.184 38.9377C216.361 38.8351 216.522 38.7083 216.662 38.5612L216.72 38.4813L216.813 38.3672C216.863 38.295 216.905 38.2187 216.941 38.1389C216.979 38.0698 217.01 37.9972 217.034 37.9222L221.748 22.4488V22.3118C221.754 22.2587 221.754 22.2052 221.748 22.1521V22.0494C221.754 22.0153 221.754 21.9807 221.748 21.9466C221.753 21.8745 221.753 21.802 221.748 21.7298H223.261C223.393 21.7417 223.525 21.7417 223.657 21.7298H223.762C223.847 21.7049 223.929 21.6704 224.006 21.6271H224.123L224.332 21.4674L224.425 21.3989L224.588 21.1935V21.1251L224.705 20.9311C224.698 20.8933 224.698 20.8547 224.705 20.817C224.698 20.7985 224.698 20.7785 224.705 20.7599C224.729 20.693 224.749 20.6243 224.763 20.5545C224.757 20.532 224.757 20.5085 224.763 20.486C224.757 20.4521 224.757 20.4173 224.763 20.3834C224.763 20.3834 224.996 19.9383 224.996 19.9155Z" fill="black"/>
<path d="M193.953 14.1187C194.015 14.1735 194.058 14.2455 194.077 14.3251C194.095 14.4047 194.089 14.4879 194.058 14.5637L188.901 31.4977C188.836 31.6826 188.704 31.8372 188.529 31.9314C188.387 32.0246 188.222 32.0797 188.052 32.0911H171.663C171.523 32.0845 171.391 32.0277 171.291 31.9314C171.231 31.8775 171.19 31.8074 171.171 31.7302C171.152 31.653 171.157 31.5721 171.186 31.4977L176.354 14.5637C176.413 14.3765 176.542 14.2178 176.715 14.1187C176.859 14.0322 177.023 13.9813 177.192 13.9703H193.58C193.719 13.9717 193.852 14.0247 193.953 14.1187ZM185.398 28.0858L188.482 17.9756H179.846L176.773 28.0858H185.398ZM209.597 14.2899C209.652 14.3536 209.722 14.4041 209.801 14.4377C209.88 14.4712 209.965 14.487 210.051 14.4838H212.181C212.262 14.4846 212.342 14.4651 212.413 14.4272C212.484 14.3893 212.544 14.3341 212.588 14.267C212.626 14.2146 212.652 14.1553 212.666 14.0926C212.68 14.0298 212.681 13.965 212.669 13.9019L212.25 10.8894C212.21 10.7499 212.139 10.6212 212.041 10.5128C211.985 10.4491 211.915 10.3986 211.836 10.365C211.758 10.3314 211.673 10.3156 211.587 10.3188H209.457C209.376 10.318 209.296 10.3375 209.225 10.3755C209.153 10.4134 209.093 10.4685 209.05 10.5356C208.968 10.6954 208.933 10.7981 208.968 10.8894L209.399 13.9019C209.421 14.0486 209.49 14.1845 209.597 14.2899ZM216.359 10.8665C216.319 10.7271 216.248 10.5984 216.15 10.49C216.096 10.4265 216.028 10.376 215.952 10.3423C215.875 10.3087 215.791 10.2928 215.707 10.296H213.566C213.486 10.2938 213.407 10.3127 213.337 10.3509C213.268 10.3891 213.21 10.445 213.17 10.5128C213.092 10.614 213.059 10.7412 213.077 10.8665L213.507 13.8791C213.534 14.0242 213.603 14.1588 213.705 14.267C213.762 14.3295 213.832 14.3792 213.911 14.4126C213.989 14.4461 214.074 14.4626 214.159 14.461H216.301C216.381 14.462 216.459 14.4426 216.528 14.4045C216.598 14.3665 216.656 14.3112 216.697 14.2442C216.737 14.1932 216.765 14.1339 216.78 14.0707C216.794 14.0075 216.793 13.942 216.778 13.8791L216.359 10.8665ZM207.723 15.431L207.513 13.9475H197.189C197.027 13.9563 196.87 14.0075 196.735 14.0959C196.649 14.1417 196.574 14.2052 196.516 14.2821C196.458 14.3589 196.417 14.4472 196.397 14.5409L195.536 17.3708C195.502 17.4415 195.49 17.5209 195.502 17.5983C195.515 17.6757 195.551 17.7475 195.606 17.8045C195.704 17.8949 195.832 17.9476 195.967 17.9528H208.514L205.43 28.063H192.917C192.756 28.0666 192.599 28.114 192.463 28.1999C192.299 28.3024 192.178 28.4609 192.126 28.645L191.253 31.4749C191.224 31.5475 191.217 31.6264 191.231 31.7029C191.245 31.7795 191.281 31.8506 191.334 31.9085C191.429 32.005 191.558 32.0622 191.695 32.0683H208.13C208.3 32.0539 208.464 31.9991 208.607 31.9085C208.779 31.8139 208.908 31.659 208.968 31.4749L213.694 16.0015H208.374C208.29 16.0031 208.206 15.9878 208.128 15.9564C208.05 15.925 207.979 15.8782 207.92 15.8189C207.824 15.7155 207.756 15.5899 207.723 15.4538V15.431Z" fill="white"/>
</g>
<rect x="259" y="0.399048" width="48" height="48" rx="8" fill="#F5F7FA"/>
<g clip-path="url(#clip3_22_777)">
<path d="M302.997 13.8106C302.997 13.8444 302.997 13.8866 302.988 13.912C302.944 14.2417 302.944 14.5714 302.97 14.9095C302.988 14.994 303.005 15.0786 303.076 15.1462C303.19 15.273 303.366 15.2476 303.437 15.0955C303.472 15.0194 303.472 14.9433 303.454 14.8672C303.366 14.546 303.349 14.2079 303.34 13.8782C303.34 13.8613 303.34 13.8359 303.34 13.8106C303.437 13.8021 303.525 13.7936 303.604 13.7936C303.666 13.7852 303.719 13.7767 303.763 13.7514C303.895 13.6838 303.895 13.54 303.754 13.4724C303.701 13.4471 303.631 13.4386 303.569 13.4386C303.349 13.4471 303.129 13.4471 302.908 13.4471C302.829 13.4471 302.75 13.4555 302.671 13.464C302.627 13.4724 302.574 13.4724 302.539 13.4978C302.477 13.5231 302.442 13.5654 302.442 13.6246C302.45 13.6838 302.477 13.7176 302.539 13.7429C302.574 13.7683 302.618 13.7767 302.662 13.7767C302.767 13.7852 302.882 13.8021 302.997 13.8106ZM305.419 14.1994C305.419 14.2079 305.427 14.2163 305.427 14.2163C305.463 14.4446 305.498 14.6644 305.524 14.8841C305.533 14.9602 305.542 15.0279 305.595 15.087C305.709 15.2307 305.885 15.2138 305.965 15.0617C306 14.9856 306.009 14.9095 305.991 14.825C305.938 14.5714 305.912 14.3178 305.859 14.0726C305.824 13.9204 305.78 13.7767 305.736 13.6415C305.709 13.557 305.648 13.4978 305.542 13.4893C305.436 13.4724 305.357 13.5231 305.313 13.5992C305.26 13.6668 305.216 13.7345 305.181 13.8106C305.119 13.9458 305.066 14.0811 304.996 14.2079C304.987 14.2417 304.978 14.267 304.961 14.2924C304.952 14.2755 304.943 14.267 304.943 14.267C304.829 14.0557 304.723 13.8444 304.608 13.6415C304.591 13.6246 304.582 13.6077 304.573 13.5908C304.52 13.5147 304.459 13.4724 304.362 13.4724C304.274 13.4809 304.203 13.5316 304.159 13.6077C304.142 13.6415 304.142 13.6668 304.133 13.7007C304.097 13.9712 304.053 14.2417 304.018 14.5122C304.001 14.6644 303.992 14.8165 303.992 14.9687C303.983 15.0025 303.992 15.0448 304.009 15.0786C304.027 15.1462 304.08 15.1885 304.15 15.1969C304.238 15.2054 304.3 15.18 304.326 15.1124C304.353 15.0617 304.362 15.0194 304.371 14.9771C304.406 14.825 304.432 14.6813 304.459 14.5376C304.476 14.453 304.485 14.3854 304.511 14.2924C304.529 14.3262 304.547 14.3516 304.564 14.3769C304.644 14.4784 304.723 14.5798 304.82 14.6644C304.917 14.732 304.996 14.7235 305.075 14.6474C305.093 14.6305 305.102 14.6221 305.119 14.6052C305.198 14.4868 305.295 14.3685 305.375 14.2501C305.392 14.2332 305.401 14.2163 305.419 14.1994Z" fill="#3A3B7B"/>
<path d="M285.124 13.9767C285.063 14.1373 285.052 14.253 285.08 14.3492C285.111 14.4801 285.192 14.5229 285.302 14.4896C286.337 14.2441 288.605 14.941 289.445 15.1353C289.643 15.176 289.804 14.9306 289.669 14.7106C289.472 14.4975 287.204 13.5852 286.339 13.5355C286 13.5171 285.394 13.4336 285.124 13.9767Z" fill="#3A3B7B"/>
<path d="M293.99 11.0235C294.101 11.0845 294.162 11.1428 294.193 11.2079C294.238 11.2933 294.214 11.3524 294.138 11.3825C293.454 11.7029 292.544 13.0819 292.177 13.5576C292.088 13.667 291.882 13.6034 291.851 13.4235C291.858 13.22 292.664 11.7234 293.115 11.3158C293.291 11.1566 293.584 10.8444 293.99 11.0235Z" fill="#3A3B7B"/>
<path d="M288.544 10.3446C288.677 10.2488 288.815 10.2152 288.885 10.2775C289.917 11.1244 290.464 12.4655 290.803 13.6933C290.815 13.7219 290.816 13.7629 290.806 13.8057C290.802 13.8423 290.774 13.881 290.73 13.9109C290.682 13.9439 290.642 13.954 290.623 13.9255C290.17 13.3352 287.588 11.0384 288.544 10.3446Z" fill="#3A3B7B"/>
<path d="M266.695 25.0277C266.943 24.8509 267.211 24.7038 267.496 24.5897C267.793 24.508 268.111 24.5215 268.4 24.6283C268.689 24.7351 268.933 24.9292 269.097 25.1814C269.244 25.4329 269.301 25.7233 269.26 26.0088C269.22 26.2942 269.084 26.5594 268.873 26.7643C268.709 26.9304 268.523 27.0751 268.321 27.1946C267.416 27.7556 266.503 28.2857 265.59 28.8467C265.404 28.9871 265.206 29.113 264.998 29.2232C264.682 29.3744 264.321 29.4148 263.978 29.3376C263.634 29.2605 263.33 29.0705 263.116 28.8006C262.957 28.6095 262.823 28.4005 262.716 28.1782C261.851 26.4339 260.955 24.6972 260.122 22.9222C259.738 22.1538 259.426 21.2701 259.121 20.4172C258.99 20.1694 258.964 19.8821 259.05 19.6163C259.135 19.3506 259.326 19.1274 259.58 18.9943C259.835 18.8611 260.133 18.8286 260.412 18.9034C260.692 18.9783 260.929 19.1548 261.075 19.3952C261.523 19.9664 261.919 20.5731 262.26 21.2087C263.124 22.7455 263.949 24.2823 264.782 25.773C264.83 25.8554 264.884 25.9349 264.942 26.0112C265.569 25.7583 266.158 25.4277 266.695 25.0277Z" fill="#3A3B7B"/>
<path d="M275.635 24.4916C273.658 26.7123 270.343 26.1513 268.678 23.2928C267.493 21.2642 267.285 17.9139 269.863 15.8008C270.413 15.3584 271.072 15.057 271.776 14.9248C272.64 14.8059 273.521 14.9522 274.294 15.3428C275.066 15.7333 275.689 16.3482 276.076 17.0994C277.485 19.5584 277.285 22.6935 275.635 24.4916ZM274.835 19.3124C274.625 18.7082 274.203 18.1923 273.642 17.8524C273.324 17.6351 272.938 17.5295 272.549 17.5533C272.16 17.5771 271.791 17.7288 271.504 17.9831C270.359 18.959 270.119 21.2719 270.952 22.6474C271.058 22.8717 271.214 23.071 271.409 23.2314C271.603 23.3918 271.832 23.5095 272.079 23.576C272.326 23.6427 272.586 23.6566 272.839 23.617C273.092 23.5774 273.333 23.4851 273.546 23.3466C274.166 22.8848 274.622 22.2489 274.848 21.5273C275.075 20.8057 275.062 20.0342 274.811 19.3202L274.835 19.3124Z" fill="#3A3B7B"/>
<path d="M283.706 20.2806C283.503 20.3224 283.294 20.3249 283.09 20.288C282.887 20.251 282.693 20.1754 282.521 20.0655C282.37 19.9826 282.24 19.8686 282.14 19.7318C282.04 19.5949 281.974 19.4385 281.945 19.2739C281.916 19.1093 281.925 18.9406 281.972 18.7798C282.019 18.6191 282.102 18.4703 282.216 18.3442C282.415 18.0909 282.697 17.9095 283.017 17.8294C283.852 17.5969 284.711 17.4551 285.579 17.4068C285.77 17.3855 285.963 17.401 286.147 17.4524C286.332 17.5038 286.503 17.5899 286.653 17.7059C286.802 17.8218 286.925 17.9653 287.016 18.1277C287.106 18.2901 287.162 18.4682 287.18 18.6516C287.43 19.5526 287.458 20.4973 287.26 21.4103C286.54 24.3609 284.058 25.3752 281.272 24.4301C280.49 24.1774 279.804 23.7065 279.302 23.0777C278.633 22.3204 278.159 21.4229 277.917 20.4574C277.721 19.5976 277.743 18.7055 277.98 17.8553C278.216 17.0052 278.662 16.2217 279.278 15.5703C279.863 14.8623 280.623 14.3051 281.488 13.9489C282.035 13.6597 282.674 13.5774 283.281 13.7184C283.419 13.755 283.544 13.8262 283.643 13.9248C283.742 14.0233 283.812 14.1456 283.846 14.2788C283.88 14.4121 283.875 14.5515 283.834 14.6827C283.792 14.8139 283.715 14.9319 283.61 15.0247C283.41 15.1984 283.192 15.3528 282.961 15.4858C282.249 15.9208 281.63 16.4814 281.136 17.1378C280.812 17.5626 280.588 18.0504 280.482 18.5668C280.375 19.0832 280.388 19.6158 280.519 20.127C280.701 20.8241 281.104 21.4497 281.672 21.9174C283.433 23.4542 285.723 21.9711 285.323 19.8734C284.738 20.0117 284.226 20.1577 283.706 20.2806Z" fill="#3A3B7B"/>
<path d="M294.466 24.6145C291.864 26.1514 288.902 24.6145 288.253 21.3872C287.781 19.082 288.678 15.8546 291.816 14.6251C292.484 14.3692 293.208 14.2793 293.922 14.3639C294.779 14.5145 295.565 14.9196 296.17 15.5221C296.775 16.1245 297.167 16.8939 297.292 17.7219C297.821 20.4651 296.62 23.3927 294.466 24.6145ZM295.371 19.4431C295.37 18.8047 295.135 18.187 294.706 17.6988C294.477 17.3968 294.146 17.1804 293.769 17.0865C293.393 16.9926 292.994 17.027 292.641 17.184C291.232 17.7679 290.239 19.8887 290.599 21.4487C290.627 21.6935 290.709 21.9296 290.842 22.1404C290.974 22.3512 291.153 22.5318 291.366 22.6694C291.579 22.8069 291.82 22.8983 292.074 22.937C292.327 22.9756 292.586 22.9607 292.833 22.8933C293.578 22.6436 294.222 22.1768 294.677 21.5583C295.132 20.9397 295.375 20.2002 295.371 19.4431Z" fill="#3A3B7B"/>
<path d="M299.924 25.26C299.884 25.5413 299.73 25.796 299.495 25.9682C299.26 26.1404 298.964 26.216 298.671 26.1783C298.378 26.1406 298.112 25.9927 297.933 25.7671C297.753 25.5417 297.675 25.2569 297.714 24.9757C297.753 24.6945 297.907 24.4397 298.142 24.2675C298.377 24.0953 298.674 24.0197 298.967 24.0574C299.26 24.0951 299.525 24.243 299.705 24.4685C299.884 24.6941 299.963 24.9788 299.924 25.26ZM299.227 14.8941C299.379 14.6709 299.603 14.5009 299.864 14.4095C300.125 14.3181 300.41 14.3102 300.676 14.3869C300.947 14.4519 301.186 14.6042 301.354 14.8182C301.521 15.0322 301.607 15.295 301.597 15.5626C301.562 15.9918 301.495 16.418 301.397 16.8382C301.133 18.2598 300.876 19.6813 300.596 21.0875C300.468 21.6485 300.3 22.1864 300.116 22.755C300.052 22.9327 299.945 23.0933 299.803 23.2237C299.716 23.3218 299.604 23.397 299.478 23.4424C299.351 23.4879 299.216 23.502 299.082 23.4836C298.949 23.4653 298.823 23.4149 298.715 23.3373C298.607 23.2596 298.522 23.1571 298.466 23.0393C298.371 22.828 298.32 22.6009 298.314 22.3708C298.314 21.4179 298.314 20.4574 298.378 19.4969C298.487 18.1261 298.701 16.7649 299.019 15.4243C299.056 15.2447 299.127 15.0729 299.227 14.9171V14.8941Z" fill="#3A3B7B"/>
<path fill-rule="evenodd" clip-rule="evenodd" d="M263.313 31.4349C263.218 31.6374 263.192 31.8632 263.238 32.0805C263.269 32.3669 263.337 32.6487 263.439 32.9193C263.568 33.2507 263.711 33.5784 263.888 33.9823C263.929 34.0752 263.971 34.1723 264.016 34.2744C264.254 34.8215 264.554 35.5208 264.953 36.5329C265.066 36.8204 265.167 37.1102 265.268 37.4021C265.309 37.52 265.35 37.6383 265.392 37.7569C265.542 38.1784 265.801 38.5571 266.144 38.8573C266.289 39.0222 266.482 39.1425 266.699 39.2026C266.92 39.2639 267.155 39.26 267.373 39.1914C267.592 39.1228 267.784 38.9927 267.924 38.818C268.062 38.6467 268.143 38.4403 268.159 38.2246C268.249 37.8045 268.218 37.3689 268.071 36.9639C267.837 36.2914 267.571 35.618 267.265 34.9593L267.263 34.9564C266.758 33.9258 266.245 32.9024 265.708 31.8786L265.704 31.8714C265.547 31.6046 265.342 31.3662 265.1 31.1667C264.942 30.9887 264.725 30.8686 264.486 30.8272C264.241 30.785 263.988 30.8276 263.773 30.9475C263.57 31.059 263.408 31.2296 263.313 31.4349Z" fill="#3A3B7B"/>
<path fill-rule="evenodd" clip-rule="evenodd" d="M271.022 28.8972C270.231 28.7004 269.404 28.6718 268.6 28.8132C267.977 28.8721 267.365 29.0099 266.939 29.2831C266.723 29.4221 266.548 29.6006 266.451 29.8274C266.353 30.0555 266.341 30.3164 266.421 30.6071C266.567 31.1395 266.757 31.6571 266.947 32.1731L266.977 32.2567L266.978 32.2585C267.548 33.7576 268.124 35.2515 268.705 36.7404C268.773 36.975 268.869 37.2013 268.991 37.4148L268.993 37.4188C269.154 37.684 269.361 37.9212 269.604 38.1204C269.726 38.23 269.876 38.3058 270.039 38.3396C270.204 38.3738 270.376 38.3639 270.535 38.3109C270.694 38.258 270.836 38.1641 270.943 38.0394C271.049 37.9167 271.118 37.7689 271.144 37.6117C271.249 37.1844 271.215 36.7366 271.047 36.3282C270.995 36.1908 270.954 36.0503 270.91 35.9025C270.896 35.8532 270.881 35.8031 270.866 35.752C272.196 35.253 273.611 34.5822 274.108 33.0214C274.303 32.4821 274.32 31.8981 274.155 31.3494C273.99 30.8002 273.652 30.3134 273.187 29.9561C272.555 29.4558 271.816 29.0944 271.022 28.8972ZM268.828 30.8115C268.855 30.8043 268.881 30.7975 268.907 30.7913C269.773 30.6606 270.659 30.8347 271.402 31.2813C271.729 31.4998 271.863 31.7425 271.886 31.9761C271.91 32.2166 271.819 32.4772 271.636 32.7277C271.29 33.201 270.659 33.5797 270.089 33.6503C269.673 32.7317 269.251 31.7759 268.828 30.8115Z" fill="#3A3B7B"/>
<path d="M276.299 27.2157C277.242 26.7979 278.409 26.7257 279.323 27.0194C279.553 27.0838 279.753 27.2229 279.888 27.4131C280.022 27.602 280.084 27.8297 280.063 28.0574C280.062 28.2052 280.024 28.3505 279.953 28.4817C279.88 28.6152 279.775 28.7301 279.647 28.8165C279.519 28.9029 279.371 28.9585 279.215 28.9783C279.06 28.9982 278.901 28.9819 278.754 28.9307L278.743 28.9268L278.732 28.9215C278.657 28.8836 278.577 28.855 278.494 28.8364L278.488 28.8353C277.846 28.6715 277.24 28.9429 277.018 29.2765C276.912 29.4355 276.899 29.5961 276.987 29.7422C277.082 29.8986 277.313 30.0741 277.78 30.1992C277.909 30.233 278.04 30.2657 278.174 30.299C278.544 30.3908 278.928 30.4863 279.3 30.6185L279.301 30.6191C281.015 31.2449 281.653 32.5412 281.435 33.7604C281.218 34.966 280.169 36.0633 278.592 36.3221C278.018 36.4442 277.42 36.4205 276.858 36.2531C276.295 36.0852 275.788 35.779 275.386 35.3645L275.376 35.3537C275.249 35.1976 275.164 35.0142 275.126 34.8195C275.091 34.6439 275.11 34.4624 275.179 34.2963C275.247 34.1313 275.364 33.9885 275.514 33.8844C275.672 33.7664 275.863 33.6956 276.063 33.6809C276.263 33.6662 276.462 33.7078 276.637 33.8004C276.812 33.8815 276.975 33.9849 277.121 34.1079L277.123 34.1101C277.382 34.3368 277.694 34.3959 277.994 34.3412C278.298 34.2857 278.584 34.113 278.767 33.884C278.95 33.6564 279.023 33.3861 278.936 33.1236C278.849 32.8593 278.585 32.5631 278.007 32.3154C277.856 32.2538 277.699 32.2041 277.536 32.1557C277.492 32.1427 277.447 32.1297 277.402 32.1165C277.281 32.0814 277.157 32.0452 277.036 32.0053C276.952 31.9779 276.869 31.952 276.786 31.9262C276.561 31.8559 276.342 31.7873 276.131 31.6954C275.672 31.5452 275.275 31.2569 274.999 30.8732C274.723 30.4878 274.584 30.0271 274.603 29.5596C274.604 28.4205 275.352 27.6358 276.299 27.2157Z" fill="#3A3B7B"/>
<path d="M288.249 27.0943C288.066 27.0086 287.864 26.968 287.661 26.976C287.457 26.984 287.26 27.0404 287.085 27.1403C286.911 27.2394 286.766 27.3782 286.661 27.5444C286.566 27.6843 286.5 27.8408 286.467 28.0051C286.434 28.1692 286.435 28.338 286.469 28.5018C286.503 28.7123 286.541 28.917 286.578 29.1189C286.64 29.453 286.7 29.7795 286.739 30.1125L286.741 30.1209C286.831 30.6431 286.878 31.1713 286.883 31.7005L286.883 31.708C286.914 32.2796 286.711 32.84 286.318 33.2704L286.311 33.2781C286.184 33.4354 286.013 33.5555 285.818 33.6249C285.623 33.6943 285.411 33.7102 285.207 33.6709C285.003 33.6317 284.815 33.5387 284.663 33.4025C284.511 33.2663 284.401 33.0916 284.347 32.8991C284.23 32.4933 284.162 32.0759 284.145 31.6552L284.345 28.6061C284.347 28.5663 284.351 28.5254 284.354 28.4842C284.362 28.3916 284.37 28.2972 284.373 28.2092C284.378 28.0798 284.374 27.9467 284.342 27.8206C284.31 27.6919 284.249 27.5693 284.14 27.465C284.033 27.3617 283.888 27.2855 283.705 27.2337C283.375 27.142 283.096 27.1449 282.864 27.2396C282.631 27.3343 282.472 27.5102 282.359 27.7133C282.247 27.9147 282.175 28.1532 282.121 28.392C282.08 28.5692 282.048 28.7553 282.017 28.9324C282.006 28.9934 281.996 29.0533 281.985 29.1115L281.985 29.1133C281.82 30.0845 281.771 31.0706 281.839 32.0525C281.852 32.5832 281.967 33.107 282.179 33.5971C282.418 34.2296 282.852 34.7776 283.422 35.1687C283.994 35.5607 284.676 35.7767 285.379 35.7881C286.081 35.7995 286.771 35.6058 287.356 35.2327C287.94 34.8601 288.393 34.3261 288.654 33.7013C289.02 32.9055 289.192 32.04 289.157 31.1707C289.135 30.5362 289.099 29.8967 289.063 29.2605C289.046 28.9484 289.028 28.637 289.012 28.3275C289.005 28.0171 288.898 27.7165 288.707 27.466C288.589 27.3076 288.431 27.1799 288.249 27.0943Z" fill="#3A3B7B"/>
<path d="M294.717 31.8754C294.699 31.898 294.679 31.9214 294.659 31.9458C294.51 31.1227 294.372 30.2999 294.234 29.4758C294.185 29.1801 294.135 28.8832 294.085 28.5872L294.08 28.5541L294.061 28.5256C294.027 28.4719 294.023 28.4192 294.023 28.3069V28.2939L294.021 28.2811C293.984 28.0491 293.875 27.8333 293.708 27.6618C293.541 27.4908 293.325 27.3717 293.087 27.3201C292.85 27.2638 292.6 27.2762 292.37 27.3557C292.14 27.435 291.94 27.5775 291.794 27.7653C291.673 27.9095 291.574 28.0694 291.499 28.2402C291.331 28.6082 291.16 28.9772 290.989 29.3472L290.987 29.3535C290.56 30.2771 290.131 31.2069 289.714 32.144L289.713 32.147C289.457 32.7547 289.246 33.3949 289.035 34.0332C288.993 34.1606 288.951 34.2879 288.909 34.4149C288.833 34.6163 288.799 34.8303 288.811 35.0441C288.797 35.2356 288.845 35.4266 288.948 35.5913C289.053 35.7594 289.21 35.8916 289.397 35.9694C289.596 36.053 289.818 36.0707 290.028 36.0199C290.238 35.969 290.425 35.8528 290.558 35.6893C290.729 35.488 290.876 35.2684 290.995 35.0357C291.348 34.3425 291.686 33.6408 292.022 32.9422C292.152 32.6719 292.278 32.4299 292.422 32.1664C292.431 32.1988 292.442 32.2305 292.452 32.2623C292.603 32.8987 292.857 33.5082 293.205 34.0686C293.271 34.1873 293.363 34.291 293.474 34.3727C293.587 34.4553 293.717 34.5133 293.856 34.5428C293.994 34.5722 294.138 34.5724 294.277 34.5432C294.415 34.514 294.546 34.456 294.658 34.3737L294.882 34.2132L296.616 32.8115L296.513 33.4387C296.372 34.3007 296.233 35.1555 296.084 36.0106C295.987 36.3895 295.987 36.7854 296.085 37.1642C296.127 37.3775 296.234 37.5737 296.393 37.7281C296.554 37.8837 296.759 37.9894 296.983 38.0316C297.206 38.0737 297.438 38.0504 297.648 37.9645C297.855 37.8799 298.03 37.7385 298.153 37.5582C298.439 37.2178 298.617 36.8057 298.666 36.3709C298.739 35.7569 298.823 35.1345 298.906 34.5123C299.002 33.7952 299.097 33.0782 299.178 32.375L299.179 32.3728C299.256 31.6031 299.294 30.8302 299.292 30.0568C299.309 29.8124 299.245 29.5689 299.11 29.3609C298.975 29.1521 298.774 28.9897 298.537 28.8969C298.29 28.7892 298.013 28.7604 297.748 28.8148C297.485 28.8689 297.246 29.0021 297.068 29.1952C296.748 29.479 296.448 29.7828 296.169 30.1045L296.168 30.1067C295.864 30.47 295.562 30.8405 295.262 31.2086C295.08 31.4324 294.898 31.6556 294.717 31.8754Z" fill="#3A3B7B"/>
</g>
<rect x="348" y="0.399048" width="48" height="48" rx="8" fill="#F5F7FA"/>
<g clip-path="url(#clip4_22_777)">
<path d="M386.438 12.0896C386.438 12.5556 386.82 12.9333 387.292 12.9333H388.146C388.618 12.9333 389 12.5556 389 12.0896C389 11.6236 388.618 11.2458 388.146 11.2458H387.292C386.82 11.2458 386.438 11.6236 386.438 12.0896Z" fill="#212326"/>
<path d="M361.667 38.2458H365.816L364.608 37.0526C364.288 36.7361 363.853 36.5583 363.4 36.5583H361.667C355.062 36.5583 349.708 31.2697 349.708 24.7458C349.708 18.222 355.062 12.9334 361.667 12.9333H375.333C381.938 12.9333 387.292 18.222 387.292 24.7458C387.292 31.2697 381.938 36.5583 375.333 36.5583H370.221C369.541 36.5583 368.889 36.2917 368.409 35.817L366.994 34.419C366.193 33.6278 365.106 33.1833 363.974 33.1833H361.667C356.949 33.1833 353.125 29.4058 353.125 24.7458C353.125 20.0859 356.949 16.3083 361.667 16.3083H375.333C380.051 16.3083 383.875 20.0859 383.875 24.7458C383.875 29.4058 380.051 33.1833 375.333 33.1833H372.051C371.371 33.1833 370.719 32.9167 370.239 32.442L368.823 31.044C368.022 30.2528 366.936 29.8083 365.803 29.8083H361.667C358.836 29.8083 356.542 27.5418 356.542 24.7458C356.542 21.9499 358.836 19.6833 361.667 19.6833H375.333C378.164 19.6833 380.458 21.9499 380.458 24.7458C380.458 27.5077 378.219 29.753 375.437 29.8073L375.436 29.8083H374.186C373.506 29.8083 372.855 29.5417 372.374 29.067L370.959 27.669C370.302 27.0198 369.452 26.6041 368.543 26.4757L368.5 26.4333H361.667C360.723 26.4333 359.958 25.6778 359.958 24.7458C359.958 23.8139 360.723 23.0583 361.667 23.0583H375.333C376.277 23.0583 377.042 23.8139 377.042 24.7458C377.042 25.6778 376.277 26.4333 375.333 26.4333H371.917L373.125 27.6266C373.445 27.9431 373.88 28.1208 374.333 28.1208H375.333C377.22 28.1208 378.75 26.6098 378.75 24.7458C378.75 22.8819 377.22 21.3708 375.333 21.3708H361.667C359.78 21.3708 358.25 22.8819 358.25 24.7458C358.25 26.6098 359.78 28.1208 361.667 28.1208H367.939C368.619 28.1208 369.27 28.3875 369.751 28.8622L371.166 30.2602C371.967 31.0514 373.053 31.4958 374.186 31.4958H375.76V31.4829C379.335 31.2651 382.167 28.3321 382.167 24.7458C382.167 21.018 379.107 17.9958 375.333 17.9958H361.667C357.893 17.9958 354.833 21.018 354.833 24.7458C354.833 28.4738 357.893 31.4958 361.667 31.4958H365.803C366.483 31.4958 367.135 31.7625 367.615 32.2372L369.031 33.6352C369.832 34.4264 370.918 34.8708 372.051 34.8708H375.333C380.994 34.8708 385.583 30.3378 385.583 24.7458C385.583 19.1539 380.994 14.6208 375.333 14.6208H361.667C356.006 14.6208 351.417 19.1539 351.417 24.7458C351.417 30.3378 356.006 34.8708 361.667 34.8708H363.974C364.653 34.8708 365.305 35.1375 365.786 35.6122L367.201 37.0102C368.002 37.8014 369.088 38.2458 370.221 38.2458H375.333C382.881 38.2458 389 32.2017 389 24.7458C389 17.29 382.881 11.2458 375.333 11.2458L361.667 11.2459C354.119 11.2459 348 17.29 348 24.7458C348 32.2017 354.119 38.2458 361.667 38.2458Z" fill="#212326"/>
</g>
<rect x="437" y="0.399048" width="48" height="48" rx="8" fill="#F5F7FA"/>
<g clip-path="url(#clip5_22_777)">
<path d="M449.343 14.2458C447.312 14.2458 445.365 15.0525 443.929 16.4885L439.243 21.1748C437.807 22.6107 437 24.5582 437 26.589C437 30.8178 440.428 34.2458 444.657 34.2458C446.688 34.2458 448.635 33.4391 450.071 32.0032L453.313 28.7617C453.313 28.7616 453.313 28.7617 453.313 28.7617L462.757 19.3169C463.443 18.6311 464.373 18.2458 465.343 18.2458C466.967 18.2458 468.343 19.3041 468.821 20.7686L471.801 17.7878C470.442 15.6581 468.057 14.2458 465.343 14.2458C463.312 14.2458 461.365 15.0525 459.929 16.4885L447.243 29.1748C446.557 29.8606 445.627 30.2458 444.657 30.2458C442.637 30.2458 441 28.6087 441 26.589C441 25.6191 441.385 24.689 442.071 24.0032L446.757 19.3169C447.443 18.6311 448.373 18.2458 449.343 18.2458C450.967 18.2458 452.343 19.3042 452.821 20.7687L455.802 17.7879C454.442 15.6581 452.057 14.2458 449.343 14.2458Z" fill="#394149"/>
<path d="M463.243 29.1748C462.557 29.8606 461.627 30.2458 460.657 30.2458C459.033 30.2458 457.657 29.1878 457.18 27.7236L454.199 30.7043C455.559 32.8338 457.943 34.2458 460.657 34.2458C462.688 34.2458 464.635 33.4391 466.071 32.0032L478.757 19.3169C479.443 18.6311 480.373 18.2458 481.343 18.2458C483.363 18.2458 485 19.8831 485 21.9027C485 22.8726 484.615 23.8027 483.929 24.4885L479.243 29.1748C478.557 29.8606 477.627 30.2458 476.657 30.2458C475.033 30.2458 473.657 29.1876 473.179 27.7233L470.199 30.7041C471.559 32.8337 473.943 34.2458 476.657 34.2458C478.688 34.2458 480.635 33.4391 482.071 32.0032L486.757 27.3169C488.193 25.881 489 23.9334 489 21.9027C489 17.6739 485.572 14.2458 481.343 14.2458C479.312 14.2458 477.365 15.0525 475.929 16.4885L463.243 29.1748Z" fill="#394149"/>
</g>
<defs>
<clipPath id="clip0_22_777">
<rect width="40" height="40" fill="white" transform="translate(0 4.39905)"/>
</clipPath>
<clipPath id="clip1_22_777">
<rect width="40" height="28" fill="white" transform="translate(81.1123 10.2458)"/>
</clipPath>
<clipPath id="clip2_22_777">
<rect width="55" height="30" fill="white" transform="translate(170 9.24585)"/>
</clipPath>
<clipPath id="clip3_22_777">
<rect width="47" height="29" fill="white" transform="translate(259 10.2458)"/>
</clipPath>
<clipPath id="clip4_22_777">
<rect width="41" height="27" fill="white" transform="translate(348 11.2458)"/>
</clipPath>
<clipPath id="clip5_22_777">
<rect width="52" height="20" fill="white" transform="translate(437 14.2458)"/>
</clipPath>
</defs>
</svg>
