<svg width="50" height="49" viewBox="0 0 50 49" fill="none" xmlns="http://www.w3.org/2000/svg">
<path d="M50 31C50 40.9411 41.9411 49 32 49L7 49C3.134 49 -3.54071e-06 45.866 -3.20274e-06 42L-4.05209e-07 10C7.76132e-08 4.47715 4.47715 -1.65037e-07 10 3.17786e-07L43 3.20274e-06C46.866 3.54071e-06 50 3.13401 50 7L50 31Z" fill="#E8F5E9"/>
<path d="M23.9896 10.006C20.9489 10.006 18.4735 12.504 18.4735 15.5577C18.4735 17.4895 19.4655 19.1951 20.9634 20.1894C19.1542 20.7943 17.5887 21.9249 16.4405 23.404C15.8057 22.9157 15.0964 22.523 14.3318 22.2416C15.4913 21.3808 16.249 19.9979 16.249 18.4437C16.249 15.8539 14.1544 13.7338 11.5803 13.7338C9.00608 13.7338 6.91147 15.8539 6.91147 18.4437C6.91147 19.9988 7.66985 21.3823 8.83037 22.2432C5.75788 23.3769 3.56354 26.3454 3.56354 29.8388V32.2928C3.56385 32.4799 3.63868 32.6591 3.77136 32.7909C3.90405 32.9229 4.08358 32.9965 4.27066 32.9959H15.0371C15.0632 32.9987 15.0893 33.0003 15.1154 33H32.8644C32.8905 33.0003 32.9169 32.9987 32.9427 32.9959H43.71C44.097 32.9943 44.4105 32.6802 44.4114 32.2928V29.8388C44.4114 26.3454 42.2209 23.3769 39.15 22.2428C40.3105 21.3823 41.0689 19.9985 41.0689 18.4434C41.0689 15.8536 38.9743 13.7334 36.4001 13.7334C33.826 13.7334 31.7313 15.8536 31.7313 18.4434C31.7313 19.9976 32.4894 21.3807 33.6489 22.2413C32.8827 22.5233 32.173 22.9173 31.5373 23.4068C30.3897 21.9268 28.8264 20.7946 27.0173 20.1894C28.5148 19.1951 29.5072 17.4895 29.5072 15.5577C29.5072 12.504 27.0305 10.006 23.9898 10.006H23.9896ZM23.9896 11.4146C26.2638 11.4146 28.0971 13.2602 28.0971 15.5577C28.0971 17.8372 26.2924 19.6649 24.0434 19.6942C24.0254 19.6942 24.0078 19.6917 23.9896 19.6917C23.9714 19.6917 23.9541 19.6942 23.9358 19.6942C21.6868 19.6652 19.8833 17.8373 19.8833 15.5577C19.8833 13.2599 21.7151 11.4146 23.9893 11.4146H23.9896ZM11.5803 15.1423C13.3848 15.1423 14.8405 16.6068 14.8405 18.4437C14.8405 20.2682 13.4036 21.7265 11.6162 21.7463C11.6042 21.7463 11.5926 21.745 11.5803 21.745C11.5684 21.745 11.5567 21.7463 11.5445 21.7463C9.75701 21.7265 8.32009 20.2679 8.32009 18.4437C8.32009 16.6069 9.77585 15.1423 11.5803 15.1423H11.5803ZM36.3997 15.1423C38.2041 15.1423 39.6599 16.6068 39.6599 18.4437C39.6599 20.2682 38.2229 21.7265 36.4355 21.7463C36.4235 21.7463 36.4119 21.745 36.3996 21.745C36.3877 21.745 36.3761 21.7463 36.3638 21.7463C34.5763 21.7265 33.1394 20.2679 33.1394 18.4437C33.1394 16.6069 34.5952 15.1423 36.3996 15.1423H36.3997ZM23.9357 21.1027C23.9536 21.103 23.9712 21.1052 23.9894 21.1052C24.0074 21.1052 24.025 21.1027 24.0432 21.1027C28.5535 21.1316 32.1631 24.7723 32.1631 29.3296L32.1628 31.591H15.8167V29.3296C15.8167 24.7719 19.4253 21.1317 23.935 21.1027H23.9357ZM11.5264 23.1565C11.5443 23.1568 11.5619 23.159 11.5802 23.159C11.5984 23.159 11.6157 23.1565 11.6339 23.1565C13.1595 23.1687 14.5517 23.6948 15.6603 24.5748C14.8671 25.9784 14.4083 27.5985 14.4083 29.33V31.586H4.97156V29.8388C4.97156 26.1349 7.88371 23.1854 11.5262 23.1562L11.5264 23.1565ZM36.3457 23.1565C36.364 23.1568 36.3813 23.159 36.3995 23.159C36.4177 23.159 36.435 23.1565 36.4533 23.1565C40.0958 23.1854 43.008 26.1353 43.008 29.8391V31.586H33.5664L33.5661 29.33C33.5661 27.5995 33.1086 25.9806 32.3169 24.5773C33.4258 23.696 34.819 23.1687 36.3458 23.1565H36.3457Z" fill="#103E13"/>
</svg>
