<svg width="50" height="49" viewBox="0 0 50 49" fill="none" xmlns="http://www.w3.org/2000/svg">
<path d="M50 31C50 40.9411 41.9411 49 32 49L5 49C2.23857 49 -3.61899e-06 46.7614 -3.37758e-06 44L-4.05209e-07 10C7.76132e-08 4.47715 4.47715 -1.65037e-07 10 3.17786e-07L45 3.37758e-06C47.7614 3.61899e-06 50 2.23858 50 5L50 31Z" fill="#E8F5E9"/>
<path d="M6.00047 36.6471C6.00047 36.9592 6.25372 37.2128 6.56615 37.2128H41.0139C41.3259 37.2128 41.5796 36.9596 41.5796 36.6471C41.5796 36.3351 41.3263 36.0815 41.0139 36.0815H39.9682V19.8402C39.9682 19.5281 39.715 19.2745 39.4025 19.2745L30.1668 19.2749V7.56576C30.1668 7.36774 30.0635 7.18471 29.8946 7.08214C29.7262 6.97919 29.5156 6.97287 29.3404 7.06399L18.8401 12.531C18.6527 12.6284 18.5359 12.8217 18.5359 13.0327V23.2604H8.37388C8.06186 23.2604 7.8082 23.5137 7.8082 23.8261V36.0816H6.56489C6.25287 36.0812 6 36.3344 6 36.6468L6.00047 36.6471ZM30.167 27.8422H38.8374V36.0819L30.167 36.0815V27.8422ZM30.167 23.9113H38.8374V26.7113L30.167 26.7109V23.9113ZM30.167 20.4056H38.8374V22.7808H30.167V20.4056ZM19.6667 13.3762L29.0353 8.49818V36.081H19.6667V13.3762ZM11.7359 31.5635C11.7359 30.3895 12.666 29.4341 13.8096 29.4341C14.9531 29.4341 15.8837 30.3891 15.8837 31.5635V36.0817H11.7359V31.5635ZM8.93952 24.3916H18.5358V36.0815H17.015V31.5633C17.015 29.7657 15.5776 28.303 13.8096 28.303C12.0424 28.303 10.605 29.7653 10.605 31.5633V36.0815H8.93952V24.3916Z" fill="#103E13"/>
</svg>
